PathFileType  4	(X/Y/Z) C:\Users\antoi\Documents\MyRepositories\mobilecap\ResultsAnalysis
DataRate	CameraRate	NumFrames	NumMarkers	Units	OrigDataRate	OrigDataStartFrame	OrigNumFrames
100.0	100.0	4	51	mm	100.0	55	216
Frame#	Time	r_knee			r_shank_antsup			r_ankle			r_calc			r_5meta			r_toe			L_knee			L_shank_antsup			L_ankle			L_calc			L_5meta			L_toe			r_sh2			r_sh3			r_sh4			L_sh2			L_sh3			r_thigh1			r_thigh2			r_thigh3			r_thigh4			r_thigh5			L_thigh1			L_thigh2			L_thigh3			L_thigh4			r.ASIS			r.PSIS			L.ASIS			L.PSIS			C7			R_Shoulder			L_Shoulder			R_Sternum			L_Sternum			R_humerus			R_elbow_med			R_elbow_lat			R_forearm			R_wrist_radius			R_wrist_ulna			L_humerus			L_elbow_med			L_elbow_lat			L_forearm			L_wrist_radius			L_wrist_ulna			R_HJC			L_HJC			R_HJC_reg			L_HJC_reg			
		X1	Y1	Z1	X2	Y2	Z2	X3	Y3	Z3	X4	Y4	Z4	X5	Y5	Z5	X6	Y6	Z6	X7	Y7	Z7	X8	Y8	Z8	X9	Y9	Z9	X10	Y10	Z10	X11	Y11	Z11	X12	Y12	Z12	X13	Y13	Z13	X14	Y14	Z14	X15	Y15	Z15	X16	Y16	Z16	X17	Y17	Z17	X18	Y18	Z18	X19	Y19	Z19	X20	Y20	Z20	X21	Y21	Z21	X22	Y22	Z22	X23	Y23	Z23	X24	Y24	Z24	X25	Y25	Z25	X26	Y26	Z26	X27	Y27	Z27	X28	Y28	Z28	X29	Y29	Z29	X30	Y30	Z30	X31	Y31	Z31	X32	Y32	Z32	X33	Y33	Z33	X34	Y34	Z34	X35	Y35	Z35	X36	Y36	Z36	X37	Y37	Z37	X38	Y38	Z38	X39	Y39	Z39	X40	Y40	Z40	X41	Y41	Z41	X42	Y42	Z42	X43	Y43	Z43	X44	Y44	Z44	X45	Y45	Z45	X46	Y46	Z46	X47	Y47	Z47	X48	Y48	Z48	X49	Y49	Z49	X50	Y50	Z50	X51	Y51	Z51	

55	0.54000000	-790.84685	739.31899	-467.36453	-821.08842	676.85887	-440.74763	-1059.93004	487.42471	-466.20708	-1136.39703	511.24419	-501.84441	-1021.92044	381.83064	-441.37114	-979.33314	366.66814	-498.31551	-930.34199	685.74361	-758.56962	-932.82980	607.39331	-759.77712	-1161.61597	403.46352	-722.49616	-1240.96078	373.22327	-674.74276	-1079.52995	346.46538	-747.84657	-1028.30685	364.63131	-691.32647	-904.66248	600.22672	-433.04949	-871.54679	730.94809	-454.25533	-962.47333	658.35603	-448.98506	-996.58041	667.32257	-781.12887	-1071.30500	570.00031	-775.45392	-852.46291	1043.89825	-478.80464	-795.78797	946.23524	-473.84273	-821.48989	908.84088	-423.34708	-929.25178	1005.95035	-406.31079	-877.62229	900.85925	-414.70388	-901.97652	977.22565	-775.06166	-879.97192	840.25391	-777.94216	-1017.73494	962.52640	-773.44164	-988.18515	823.46156	-772.62145	-880.79353	1135.87947	-481.31213	-1055.94570	1195.12965	-546.93227	-892.11092	1117.15719	-739.03221	-1065.49686	1185.87479	-653.08435	-851.12210	1616.96136	-624.37012	-799.31408	1559.23637	-475.87762	-773.98157	1553.60205	-775.44065	-746.69210	1508.08947	-599.67862	-744.90321	1507.75072	-642.19416	-796.72825	1376.63898	-323.17732	-830.40753	1253.76066	-318.81225	-809.02000	1310.52050	-266.16544	-692.29207	1286.15544	-291.53338	-587.48622	1249.40101	-322.89140	-590.24942	1217.78397	-292.52658	-716.72483	1454.88925	-827.49578	-702.42893	1231.95308	-871.82597	-676.61935	1267.44931	-920.45187	-569.90987	1258.17842	-872.39440	-473.82052	1211.37205	-808.88977	-467.50781	1187.49737	-837.72719	-963.43611	1077.82133	-500.15246	-971.69158	1066.26795	-699.93828	-960.40410	1072.25978	-505.41669	-975.63510	1057.49395	-674.78890	
56	0.55000000	-774.74967	747.50769	-463.42561	-804.95847	684.55548	-436.84098	-1044.54884	497.54637	-467.23088	-1120.04930	520.68010	-504.73033	-1006.83283	391.62577	-441.28692	-962.76486	376.73263	-497.18811	-929.28331	688.66383	-759.38371	-932.37007	610.62267	-760.55066	-1160.42566	404.99248	-723.27521	-1240.08809	375.81157	-675.42696	-1079.10563	346.34358	-748.11190	-1027.62294	364.47114	-691.73611	-888.76654	608.14198	-430.70576	-854.87055	738.90268	-450.71440	-946.20188	666.52751	-447.29994	-996.25520	670.46587	-781.42720	-1070.78051	572.88524	-775.73139	-839.85366	1050.70094	-476.65763	-782.31877	954.21143	-469.90511	-808.79609	916.26438	-420.31798	-918.22305	1012.26533	-404.96511	-864.93988	908.13883	-411.91567	-891.60621	979.12463	-774.85011	-874.12263	841.45175	-778.20026	-1007.87710	967.97454	-773.81355	-982.79759	828.05089	-773.14267	-869.52843	1142.95799	-480.26911	-1044.56006	1199.25321	-549.59085	-878.11118	1121.55031	-737.90200	-1051.41275	1190.23013	-655.90279	-846.37826	1624.00857	-623.05162	-796.36070	1568.41651	-474.95171	-767.00043	1563.58588	-772.26058	-740.05852	1517.06626	-596.78854	-737.81647	1516.86145	-639.51798	-790.67801	1390.29334	-317.66809	-821.40729	1266.68569	-310.75161	-801.82987	1325.59394	-259.27900	-684.72036	1305.45564	-284.91752	-578.63238	1272.47058	-316.15790	-579.75591	1241.82728	-284.61785	-705.69950	1468.67164	-824.68074	-685.05728	1247.43717	-875.33247	-659.25387	1285.33794	-922.91367	-553.99675	1280.02885	-872.00461	-457.57089	1237.26313	-806.55732	-449.40776	1214.09085	-835.30040	-951.74721	1083.85470	-500.09193	-956.92400	1070.40416	-699.86355	-948.99691	1076.12041	-506.29405	-959.93601	1061.71425	-676.03915	
57	0.56000000	-758.46778	756.14717	-459.07774	-788.84731	692.56008	-432.92614	-1028.37713	507.22347	-468.32161	-1102.85008	528.95458	-507.87486	-990.67499	401.06756	-441.00998	-944.18698	386.94762	-495.40135	-927.55040	692.46443	-759.46937	-931.26393	614.86520	-760.56106	-1158.72368	407.30726	-724.13274	-1238.66218	379.83019	-676.39114	-1078.54792	346.26708	-748.12343	-1026.76731	364.30217	-692.12199	-873.14366	616.46823	-428.82063	-838.22134	747.24296	-447.33062	-929.94693	675.32075	-446.01522	-995.20673	674.80402	-781.46643	-1069.54818	576.99487	-776.11790	-827.48437	1057.38337	-474.33903	-768.99586	962.19816	-465.58272	-796.09111	923.64278	-417.19858	-907.00767	1018.59701	-403.80552	-852.31963	915.12159	-409.38899	-880.49835	981.44956	-774.16862	-867.60470	843.21947	-777.94497	-997.16509	973.89009	-774.37056	-976.56535	833.29177	-773.75192	-858.07617	1150.24695	-479.02241	-1032.66954	1203.79640	-551.95251	-863.55437	1126.83813	-735.99167	-1037.18099	1195.03700	-658.70424	-841.35567	1631.02403	-621.56886	-793.36124	1577.79573	-473.90416	-760.81764	1574.22788	-768.02233	-733.20702	1525.88552	-593.83899	-730.53309	1525.88345	-636.68999	-785.29157	1404.02653	-312.27029	-813.07351	1279.98691	-302.73808	-795.25656	1340.84215	-252.44667	-677.91281	1324.54456	-278.36691	-570.75922	1294.89350	-309.24451	-570.63633	1265.28229	-276.66510	-695.04606	1482.72460	-821.70547	-668.31472	1263.45910	-878.65838	-642.53061	1304.12242	-925.73142	-538.93098	1301.87854	-871.48510	-442.70397	1262.32826	-804.02803	-432.73331	1240.03607	-832.82842	-939.85084	1090.19177	-499.86057	-941.62225	1075.22994	-699.58678	-936.91920	1080.82283	-506.68725	-944.09269	1066.90320	-676.31394	
58	0.57000000	-741.81448	765.13393	-454.44208	-772.43632	701.23824	-429.24372	-1010.68075	515.61377	-469.41625	-1084.17557	536.59465	-510.97750	-973.53673	409.52516	-440.37343	-925.19165	395.41332	-493.39807	-924.57947	697.10941	-758.77402	-929.02726	620.06243	-760.04948	-1156.10650	410.80587	-725.04062	-1236.49065	385.76792	-677.46792	-1077.60015	346.53440	-747.97596	-1025.49092	363.89588	-692.42311	-856.99101	625.20275	-427.16189	-821.64067	756.13513	-444.23325	-913.34582	684.34079	-445.18829	-992.97732	680.25872	-780.85352	-1067.23602	582.41785	-776.36347	-815.13111	1064.66523	-471.83165	-755.57541	970.41888	-461.35896	-783.19682	931.69059	-413.29673	-895.53754	1025.00558	-402.78912	-839.55675	922.07194	-407.16400	-868.61560	984.45096	-773.45898	-860.05142	845.71243	-777.05632	-985.47746	980.26807	-775.23077	-969.36690	839.10377	-774.36453	-846.49218	1157.35734	-477.68810	-1020.35806	1208.70411	-554.03611	-848.50124	1132.96911	-733.71450	-1023.14511	1200.29879	-661.28993	-835.87407	1637.81118	-620.02972	-790.18041	1587.14145	-472.57430	-755.44184	1585.23124	-763.12120	-726.65882	1533.86273	-591.66007	-722.69859	1534.68574	-633.70258	-780.36718	1417.69262	-306.97570	-805.51974	1293.49995	-294.65243	-789.38504	1356.10526	-245.87495	-671.85924	1343.25363	-271.71397	-563.82528	1316.47522	-302.17719	-562.74225	1287.80618	-268.86850	-684.82620	1496.74606	-818.81751	-652.46291	1279.81483	-882.33502	-626.61904	1323.33874	-928.61319	-524.76275	1323.46354	-870.77560	-429.00734	1286.44532	-801.26737	-417.37973	1265.21136	-830.35426	-927.84005	1096.54946	-499.66940	-926.05546	1080.74846	-699.32736	-924.18268	1086.22106	-506.60144	-928.57994	1072.96163	-675.77902	
